<svg width="243" height="189" viewBox="0 0 243 189" fill="none" xmlns="http://www.w3.org/2000/svg">
<path d="M183.578 55.3438L153.078 30.8438H147.078L155.578 41.8438L131.578 63.3438L117.078 51.3438H109.078L112.078 59.8438L81.0778 57.8438L36.0778 24.8438L30.0778 26.8438L54.0778 53.3438C54.0778 53.3438 8.57781 51.3438 5.57781 67.3438C5.57781 67.3438 -0.422195 86.3438 79.0778 82.3438L142.072 119.844H153.078L106.572 79.8438H126.572L149.572 93.8438H158.572L142.072 75.8438L162.072 48.8438L174.072 55.3438H183.578Z" fill="#FF8F15" stroke="#FF8F15"/>
<path d="M87.0723 146.311L36.0723 136.811C36.0723 136.811 56.0723 189.811 122.572 188.311C122.572 188.311 171.572 188.844 198.072 150.844C198.072 150.844 214.572 125.844 212.572 96.3112C212.572 96.3112 217.072 6.81124 119.572 0.311238C119.572 0.311238 89.5723 -2.16142 52.5723 27.8386L62.0723 35.3438C62.0723 35.3438 115.072 -17.1562 176.072 35.3438C176.072 35.3438 217.072 70.3438 192.572 132.344C192.572 132.344 188.572 156.831 90.0723 146.311H87.0723Z" fill="#FF8F15"/>
<path d="M42.5723 99.8438H61.5723V110.844H63.5723V87.8438L78.0723 94.3438V113.344H79.5723V99.8438H90.5723V109.344H93.0723V99.8438L104.072 105.344V115.344L114.072 110.844V124.844H116.572V113.344L125.572 117.844V124.844H159.572V109.344L164.072 107.344V103.844L169.572 107.344V117.844H172.072V94.3438L183.072 98.3438V103.844L190.572 107.344V113.344H194.072L187.572 131.844C187.572 131.844 106.572 144.844 42.5723 112.344V99.8438Z" fill="#D0D0D0"/>
<path d="M16.0712 85.8435C16.0712 85.8435 -8.42883 97.3435 3.07117 111.344C3.07117 111.344 12.5723 133.844 103.572 149.344C103.572 149.344 153.572 158.344 206.572 147.844C206.572 147.844 244.572 140.344 242.572 120.344C242.572 120.344 242.572 99.3435 191.072 81.3435C191.072 81.3435 164.572 72.8435 158.072 73.8435C158.072 73.8435 214.072 91.1599 222.572 102.344C222.572 102.344 253.072 120.344 217.072 132.844C217.072 132.844 98.7538 160.186 16.7775 102.841C16.7775 102.841 7.57227 96.3438 13.0723 90.3438L16.0712 85.8435Z" fill="#D0D0D0"/>
</svg>
